<svg xmlns="http://www.w3.org/2000/svg" viewBox="0 0 1380 980" width="1380" height="980">
  <defs>
    <clipPath id="tileClip">
      <rect width="320" height="320" rx="54"/>
    </clipPath>
  </defs>
  <rect width="1380" height="980" fill="#f7f7f4"/>
  <text x="60" y="78" font-family="Inter, Segoe UI, Arial, sans-serif" font-size="34" font-weight="760" fill="#272522">Minimal Image Search color options</text>
  <text x="60" y="116" font-family="Inter, Segoe UI, Arial, sans-serif" font-size="18" fill="#77736b">Same core icon, brighter color systems based on the current brown and sun palette.</text>
  <g transform="translate(60 170)">
    <g transform="translate(0 0)">
      <rect width="380" height="380" rx="28" fill="#ffffff" stroke="#ebe6da"/>
      <g transform="translate(30 28)" clip-path="url(#tileClip)"><image href="option-01.svg" width="320" height="320"/></g>
      <text x="30" y="350" font-family="Inter, Segoe UI, Arial, sans-serif" font-size="18" font-weight="700" fill="#4e4941">01 Bright amber</text>
    </g>
    <g transform="translate(440 0)">
      <rect width="380" height="380" rx="28" fill="#ffffff" stroke="#ebe6da"/>
      <g transform="translate(30 28)" clip-path="url(#tileClip)"><image href="option-02.svg" width="320" height="320"/></g>
      <text x="30" y="350" font-family="Inter, Segoe UI, Arial, sans-serif" font-size="18" font-weight="700" fill="#4e4941">02 Orange punch</text>
    </g>
    <g transform="translate(880 0)">
      <rect width="380" height="380" rx="28" fill="#ffffff" stroke="#ebe6da"/>
      <g transform="translate(30 28)" clip-path="url(#tileClip)"><image href="option-03.svg" width="320" height="320"/></g>
      <text x="30" y="350" font-family="Inter, Segoe UI, Arial, sans-serif" font-size="18" font-weight="700" fill="#4e4941">03 Golden contrast</text>
    </g>
    <g transform="translate(0 430)">
      <rect width="380" height="380" rx="28" fill="#ffffff" stroke="#ebe6da"/>
      <g transform="translate(30 28)" clip-path="url(#tileClip)"><image href="option-04.svg" width="320" height="320"/></g>
      <text x="30" y="350" font-family="Inter, Segoe UI, Arial, sans-serif" font-size="18" font-weight="700" fill="#4e4941">04 Warm coral</text>
    </g>
    <g transform="translate(440 430)">
      <rect width="380" height="380" rx="28" fill="#ffffff" stroke="#ebe6da"/>
      <g transform="translate(30 28)" clip-path="url(#tileClip)"><image href="option-05.svg" width="320" height="320"/></g>
      <text x="30" y="350" font-family="Inter, Segoe UI, Arial, sans-serif" font-size="18" font-weight="700" fill="#4e4941">05 Teal edge</text>
    </g>
    <g transform="translate(880 430)">
      <rect width="380" height="380" rx="28" fill="#ffffff" stroke="#ebe6da"/>
      <g transform="translate(30 28)" clip-path="url(#tileClip)"><image href="option-06.svg" width="320" height="320"/></g>
      <text x="30" y="350" font-family="Inter, Segoe UI, Arial, sans-serif" font-size="18" font-weight="700" fill="#4e4941">06 Violet edge</text>
    </g>
  </g>
</svg>
