<svg xmlns="http://www.w3.org/2000/svg" viewBox="0 0 1380 1050" width="1380" height="1050">
  <defs>
    <clipPath id="tileClip">
      <rect width="320" height="320" rx="54"/>
    </clipPath>
    <symbol id="option-01" viewBox="0 0 1024 1024">
      <g fill="none" stroke-linecap="round" stroke-linejoin="round">
        <path d="M668 668l188 188" stroke="#3a2516" stroke-width="128"/>
        <circle cx="438" cy="438" r="320" fill="#fff4d7" stroke="#3a2516" stroke-width="76"/>
        <circle cx="438" cy="438" r="266" fill="#fffaf0" stroke="#c49a52" stroke-width="22"/>
        <rect x="274" y="318" width="330" height="250" rx="32" fill="#fffdf7" stroke="#6f4727" stroke-width="28"/>
        <path d="M304 540l118-128 108 122 54-58 72 84v42H304z" fill="#7f5635" stroke="none"/>
        <circle cx="534" cy="394" r="54" fill="#ffb11f" stroke="none"/>
      </g>
    </symbol>
    <symbol id="option-02" viewBox="0 0 1024 1024">
      <g fill="none" stroke-linecap="round" stroke-linejoin="round">
        <path d="M668 668l188 188" stroke="#2d221b" stroke-width="128"/>
        <circle cx="438" cy="438" r="320" fill="#f6ead3" stroke="#2d221b" stroke-width="76"/>
        <circle cx="438" cy="438" r="266" fill="#fff8e8" stroke="#ffb02e" stroke-width="24"/>
        <rect x="274" y="318" width="330" height="250" rx="32" fill="#fffdf7" stroke="#5c3d28" stroke-width="28"/>
        <path d="M304 540l118-128 108 122 54-58 72 84v42H304z" fill="#9a6339" stroke="none"/>
        <circle cx="534" cy="394" r="54" fill="#ff8f1f" stroke="none"/>
      </g>
    </symbol>
    <symbol id="option-03" viewBox="0 0 1024 1024">
      <g fill="none" stroke-linecap="round" stroke-linejoin="round">
        <path d="M668 668l188 188" stroke="#332017" stroke-width="128"/>
        <circle cx="438" cy="438" r="320" fill="#fff0c8" stroke="#332017" stroke-width="76"/>
        <circle cx="438" cy="438" r="266" fill="#fff9ea" stroke="#f4c64d" stroke-width="22"/>
        <rect x="274" y="318" width="330" height="250" rx="32" fill="#fffdfa" stroke="#63401f" stroke-width="28"/>
        <path d="M304 540l118-128 108 122 54-58 72 84v42H304z" fill="#6b3d22" stroke="none"/>
        <circle cx="534" cy="394" r="54" fill="#ffd12f" stroke="none"/>
      </g>
    </symbol>
    <symbol id="option-04" viewBox="0 0 1024 1024">
      <g fill="none" stroke-linecap="round" stroke-linejoin="round">
        <path d="M668 668l188 188" stroke="#3d2418" stroke-width="128"/>
        <circle cx="438" cy="438" r="320" fill="#ffe6c7" stroke="#3d2418" stroke-width="76"/>
        <circle cx="438" cy="438" r="266" fill="#fff7eb" stroke="#e48538" stroke-width="24"/>
        <rect x="274" y="318" width="330" height="250" rx="32" fill="#fffdf8" stroke="#704324" stroke-width="28"/>
        <path d="M304 540l118-128 108 122 54-58 72 84v42H304z" fill="#8d5631" stroke="none"/>
        <circle cx="534" cy="394" r="54" fill="#ff6f3c" stroke="none"/>
      </g>
    </symbol>
    <symbol id="option-05" viewBox="0 0 1024 1024">
      <g fill="none" stroke-linecap="round" stroke-linejoin="round">
        <path d="M668 668l188 188" stroke="#26221c" stroke-width="128"/>
        <circle cx="438" cy="438" r="320" fill="#efe4ce" stroke="#26221c" stroke-width="76"/>
        <circle cx="438" cy="438" r="266" fill="#fff7e6" stroke="#2f8f83" stroke-width="22"/>
        <rect x="274" y="318" width="330" height="250" rx="32" fill="#fffdf7" stroke="#5b3d27" stroke-width="28"/>
        <path d="M304 540l118-128 108 122 54-58 72 84v42H304z" fill="#7b5739" stroke="none"/>
        <circle cx="534" cy="394" r="54" fill="#ffb326" stroke="none"/>
      </g>
    </symbol>
    <symbol id="option-06" viewBox="0 0 1024 1024">
      <g fill="none" stroke-linecap="round" stroke-linejoin="round">
        <path d="M668 668l188 188" stroke="#302018" stroke-width="128"/>
        <circle cx="438" cy="438" r="320" fill="#f2e7ff" stroke="#302018" stroke-width="76"/>
        <circle cx="438" cy="438" r="266" fill="#fff8ee" stroke="#8f63ff" stroke-width="22"/>
        <rect x="274" y="318" width="330" height="250" rx="32" fill="#fffdf8" stroke="#5e3b29" stroke-width="28"/>
        <path d="M304 540l118-128 108 122 54-58 72 84v42H304z" fill="#7a5437" stroke="none"/>
        <circle cx="534" cy="394" r="54" fill="#ffbd23" stroke="none"/>
      </g>
    </symbol>
  </defs>
  <rect width="1380" height="1050" fill="#f7f7f4"/>
  <text x="60" y="78" font-family="Inter, Segoe UI, Arial, sans-serif" font-size="34" font-weight="760" fill="#272522">Minimal Image Search color options</text>
  <text x="60" y="116" font-family="Inter, Segoe UI, Arial, sans-serif" font-size="18" fill="#77736b">Same core icon, brighter color systems based on the current brown and sun palette.</text>
  <g transform="translate(60 170)">
    <g transform="translate(0 0)">
      <rect width="380" height="405" rx="28" fill="#ffffff" stroke="#ebe6da"/>
      <g transform="translate(30 28)" clip-path="url(#tileClip)"><use href="#option-01" width="320" height="320"/></g>
      <text x="30" y="352" font-family="Inter, Segoe UI, Arial, sans-serif" font-size="18" font-weight="700" fill="#4e4941">01 Bright amber</text>
      <use href="#option-01" x="284" y="342" width="32" height="32"/>
      <use href="#option-01" x="326" y="342" width="48" height="48"/>
    </g>
    <g transform="translate(440 0)">
      <rect width="380" height="405" rx="28" fill="#ffffff" stroke="#ebe6da"/>
      <g transform="translate(30 28)" clip-path="url(#tileClip)"><use href="#option-02" width="320" height="320"/></g>
      <text x="30" y="352" font-family="Inter, Segoe UI, Arial, sans-serif" font-size="18" font-weight="700" fill="#4e4941">02 Orange punch</text>
      <use href="#option-02" x="284" y="342" width="32" height="32"/>
      <use href="#option-02" x="326" y="342" width="48" height="48"/>
    </g>
    <g transform="translate(880 0)">
      <rect width="380" height="405" rx="28" fill="#ffffff" stroke="#ebe6da"/>
      <g transform="translate(30 28)" clip-path="url(#tileClip)"><use href="#option-03" width="320" height="320"/></g>
      <text x="30" y="352" font-family="Inter, Segoe UI, Arial, sans-serif" font-size="18" font-weight="700" fill="#4e4941">03 Golden contrast</text>
      <use href="#option-03" x="284" y="342" width="32" height="32"/>
      <use href="#option-03" x="326" y="342" width="48" height="48"/>
    </g>
    <g transform="translate(0 455)">
      <rect width="380" height="405" rx="28" fill="#ffffff" stroke="#ebe6da"/>
      <g transform="translate(30 28)" clip-path="url(#tileClip)"><use href="#option-04" width="320" height="320"/></g>
      <text x="30" y="352" font-family="Inter, Segoe UI, Arial, sans-serif" font-size="18" font-weight="700" fill="#4e4941">04 Warm coral</text>
      <use href="#option-04" x="284" y="342" width="32" height="32"/>
      <use href="#option-04" x="326" y="342" width="48" height="48"/>
    </g>
    <g transform="translate(440 455)">
      <rect width="380" height="405" rx="28" fill="#ffffff" stroke="#ebe6da"/>
      <g transform="translate(30 28)" clip-path="url(#tileClip)"><use href="#option-05" width="320" height="320"/></g>
      <text x="30" y="352" font-family="Inter, Segoe UI, Arial, sans-serif" font-size="18" font-weight="700" fill="#4e4941">05 Teal edge</text>
      <use href="#option-05" x="284" y="342" width="32" height="32"/>
      <use href="#option-05" x="326" y="342" width="48" height="48"/>
    </g>
    <g transform="translate(880 455)">
      <rect width="380" height="405" rx="28" fill="#ffffff" stroke="#ebe6da"/>
      <g transform="translate(30 28)" clip-path="url(#tileClip)"><use href="#option-06" width="320" height="320"/></g>
      <text x="30" y="352" font-family="Inter, Segoe UI, Arial, sans-serif" font-size="18" font-weight="700" fill="#4e4941">06 Violet edge</text>
      <use href="#option-06" x="284" y="342" width="32" height="32"/>
      <use href="#option-06" x="326" y="342" width="48" height="48"/>
    </g>
  </g>
</svg>
